<svg width="80" height="20" viewBox="0 0 80 20" fill="none" xmlns="http://www.w3.org/2000/svg">
<path d="M7.22382 2.69531V17.3438H4.86823V2.69531H7.22382Z" fill="#231815"/>
<path d="M12.1686 0.0195312H17.782V2.0332H14.5894V17.9793H17.782V19.9945H12.1686V0.0195312Z" fill="#00A29A"/>
<path d="M28.6675 3.58819C29.8297 4.18344 30.7281 5.03877 31.3611 6.1526C31.9948 7.26642 32.3109 8.56641 32.3109 10.053C32.3109 11.5395 31.9948 12.8276 31.3611 13.9209C30.7281 15.0142 29.8297 15.8505 28.6675 16.4324C27.5052 17.0142 26.1514 17.3047 24.6059 17.3047H19.8655V2.69531H24.6059C26.1514 2.69531 27.5052 2.99294 28.6675 3.58819ZM28.5112 13.9616C29.4155 13.0379 29.8682 11.7344 29.8682 10.0526C29.8682 8.37076 29.4155 7.03164 28.5112 6.07869C27.6054 5.12573 26.3045 4.65024 24.6059 4.65024H22.2465V15.349H24.6059C26.3045 15.349 27.6054 14.8869 28.5112 13.9616Z" fill="#231815"/>
<path d="M45.1379 12.3105H36.3472C36.4167 13.225 36.7575 13.959 37.3711 14.5117C37.9828 15.0664 38.7346 15.3434 39.6258 15.3434C40.9061 15.3434 41.811 14.8109 42.3402 13.7441H44.9078C44.5604 14.7957 43.9299 15.6578 43.0183 16.3309C42.1067 17.002 40.976 17.3387 39.6258 17.3387C38.5258 17.3387 37.5411 17.0918 36.6711 16.6C35.8011 16.1098 35.1188 15.4164 34.6253 14.5238C34.131 13.6293 33.8837 12.5949 33.8837 11.418C33.8837 10.241 34.1239 9.20508 34.6041 8.31055C35.0842 7.41797 35.7595 6.72969 36.6295 6.24453C37.4995 5.75938 38.4987 5.51758 39.6258 5.51758C40.753 5.51758 41.6783 5.75273 42.5279 6.22422C43.3767 6.69414 44.0375 7.35508 44.5109 8.20742C44.984 9.05938 45.2211 10.0383 45.2211 11.1473C45.2211 11.5766 45.1933 11.9637 45.1379 12.3105ZM42.7368 10.3984C42.7223 9.52617 42.409 8.82773 41.7973 8.30039C41.184 7.77461 40.4259 7.51094 39.5214 7.51094C38.6997 7.51094 37.9973 7.77148 37.4127 8.29023C36.8282 8.80937 36.4799 9.5125 36.3684 10.3984H42.7368Z" fill="#231815"/>
<path d="M47.486 8.32263C47.9662 7.43513 48.6202 6.74685 49.4486 6.25505C50.277 5.76326 51.1921 5.51794 52.1944 5.51794C53.0994 5.51794 53.8893 5.69373 54.5638 6.04724C55.2391 6.40076 55.7789 6.84021 56.1821 7.36599V5.70427H58.5832V17.1515H56.1821V15.4472C55.7785 15.9883 55.2288 16.4379 54.5332 16.798C53.8367 17.1582 53.0429 17.339 52.1524 17.339C51.1635 17.339 50.2597 17.0855 49.438 16.5801C48.6163 16.0746 47.9658 15.3679 47.4856 14.4617C47.0055 13.5539 46.7652 12.5258 46.7652 11.3761C46.7652 10.2265 47.0055 9.20857 47.4856 8.32302L47.486 8.32263ZM55.5359 9.36052C55.208 8.77888 54.7805 8.33591 54.2513 8.03162C53.722 7.72576 53.152 7.57341 52.5395 7.57341C51.9271 7.57341 51.3563 7.72224 50.8278 8.0199C50.2986 8.31912 49.8703 8.75544 49.5432 9.33005C49.2162 9.90505 49.0529 10.5863 49.0529 11.3758C49.0529 12.1652 49.2158 12.8586 49.5432 13.4535C49.8703 14.0484 50.3017 14.5015 50.838 14.8144C51.3731 15.1254 51.9408 15.2812 52.5399 15.2812C53.139 15.2812 53.7224 15.1289 54.2517 14.8246C54.7809 14.5203 55.2084 14.0722 55.5362 13.484C55.8625 12.8957 56.0266 12.2058 56.0266 11.4179C56.0266 10.6301 55.8625 9.94216 55.5362 9.36052H55.5359Z" fill="#231815"/>
<path d="M65.4847 6.00466C66.0626 5.68005 66.7481 5.51794 67.5415 5.51794V7.96951H66.9358C66.0029 7.96951 65.297 8.20466 64.8169 8.67459C64.336 9.14646 64.0965 9.96287 64.0965 11.1261V17.1515H61.7158V5.70388H64.0965V7.3656C64.4439 6.78396 64.9068 6.33084 65.4847 6.00466Z" fill="#231815"/>
<path d="M74.4596 19.9945H68.8462V17.9793H72.0184V2.0332H68.8462V0.0195312H74.4596V19.9945Z" fill="#00A29A"/>
</svg>
