<svg width="56" height="37" viewBox="0 0 56 37" fill="none" xmlns="http://www.w3.org/2000/svg">
<path d="M32.7619 9.37372C32.5035 9.13948 32.5224 9.1186 32.2641 8.88437C32.0057 8.65013 32.1179 8.52617 31.8595 8.29193C31.6012 8.0577 31.6462 8.00811 31.3872 7.77388C31.1281 7.53964 30.8561 7.84043 30.5977 7.60619C30.3393 7.37196 30.5546 7.13381 30.2956 6.89957C30.0366 6.66534 29.8265 6.89762 29.5681 6.66338C29.3097 6.42915 29.3038 6.43502 29.0448 6.20079C28.7858 5.96655 28.8673 5.87651 28.609 5.64162C28.4393 5.4883 28.3317 5.2508 28.1327 5.15358C27.9337 5.05637 27.6923 5.02113 27.4717 4.98198C27.2512 4.94284 27.0117 4.83518 26.7866 4.85802C26.5615 4.88085 26.3521 5.03092 26.14 5.11574C25.8177 5.24558 25.838 5.29582 25.5156 5.42501C25.1933 5.5542 25.1901 5.54702 24.8684 5.67621C24.5467 5.80539 24.46 5.59139 24.1376 5.72057C23.8153 5.84976 23.9308 6.1375 23.6091 6.26734C23.2875 6.39718 23.2842 6.39 22.9619 6.51919C22.6396 6.64838 22.5469 6.41871 22.2253 6.5479C21.9036 6.67708 22.0093 6.94264 21.6876 7.07182C21.366 7.20101 21.2505 6.91523 20.9282 7.04442C20.6059 7.17426 20.6391 7.25712 20.3175 7.38696C19.9958 7.5168 20.0728 7.70993 19.7505 7.83977C19.4282 7.96961 19.4477 8.01855 19.1254 8.14774C18.9401 8.22212 18.6974 8.28541 18.5049 8.30302C18.3085 8.32064 18.0828 8.17906 17.8916 8.13991C17.7004 8.10076 17.4838 8.05574 17.3096 7.96244C17.1354 7.86914 17.0127 7.68579 16.8711 7.54421C16.6376 7.30867 16.6754 7.27148 16.4418 7.03594C16.2082 6.8004 16.265 6.74494 16.0321 6.50875C15.7992 6.27256 15.5851 6.48396 15.3522 6.24842C15.1193 6.01288 15.4018 5.73297 15.1689 5.49743C14.9359 5.26189 14.6554 5.53854 14.4225 5.30234C14.1895 5.06615 14.26 4.99699 14.0271 4.7608C13.7941 4.52461 14.0062 4.31582 13.7726 4.07963C13.539 3.84344 13.4516 3.93087 13.2187 3.69467C12.9857 3.45848 12.7717 3.66988 12.5388 3.43369C12.3059 3.1975 12.3424 3.16096 12.1095 2.92542C11.8765 2.68988 11.885 2.68075 11.6521 2.44455C11.4192 2.20836 11.5177 2.11115 11.2841 1.87561C11.0505 1.64007 11.1843 1.50827 10.9507 1.27208C10.7171 1.03589 10.5149 1.23619 10.2819 1" stroke="#FFD817" stroke-width="1.3" stroke-miterlimit="10" stroke-linecap="round"/>
<path d="M24.2277 27.8417C24.4737 28.0877 24.2903 28.2703 24.5363 28.5157C24.7816 28.761 24.9258 28.6175 25.1712 28.8628C25.4165 29.1081 25.4954 29.0298 25.7414 29.2751C25.9874 29.5205 25.7427 29.7651 25.988 30.0111C26.2334 30.2571 26.1903 30.3002 26.4356 30.5461C26.681 30.7921 26.8447 30.6283 27.0901 30.8743C27.3354 31.1203 27.4776 30.9787 27.7229 31.2247C27.9683 31.4707 27.7856 31.6534 28.0309 31.8993C28.2762 32.1453 28.365 32.0572 28.6109 32.3032C28.8569 32.5492 28.7786 32.6268 29.0246 32.8728C29.1655 33.0138 29.2158 33.2871 29.3763 33.3909C29.5368 33.4946 29.5498 33.5507 29.7306 33.6179C29.6725 33.8587 29.6843 33.9044 29.5596 34.1249C29.435 34.3454 29.5675 34.75 29.3854 34.9307C29.2119 35.1043 28.9502 35.2178 28.7473 35.3346C28.5444 35.4514 28.2925 35.5701 28.0635 35.6314C27.8345 35.6928 27.5618 35.837 27.323 35.837C27.0842 35.837 26.8141 35.6941 26.5824 35.6321C26.3508 35.5701 26.0552 35.5479 25.8458 35.4266C25.6364 35.3052 25.7114 34.8263 25.5378 34.6534C25.3003 34.4159 25.055 34.6612 24.8175 34.4237C24.58 34.1862 24.8495 33.9168 24.612 33.6793C24.3745 33.4418 24.3047 33.5116 24.0672 33.2741C23.8297 33.0366 23.6979 33.1684 23.4604 32.9309C23.2229 32.6934 23.1257 32.79 22.8882 32.5525C22.6507 32.315 22.7225 32.2432 22.485 32.0057C22.2475 31.7682 22.2599 31.7552 22.0224 31.5177C21.7849 31.2802 21.7222 31.3421 21.4847 31.1046C21.2472 30.8672 21.5369 30.5775 21.2994 30.34C21.0619 30.1025 20.8147 30.3497 20.5772 30.1123C20.3397 29.8748 20.3371 29.8774 20.0996 29.6399C19.8621 29.4024 19.7485 29.5159 19.511 29.2778C19.2735 29.0396 19.528 28.7851 19.2905 28.5476C19.053 28.3101 18.9232 28.44 18.685 28.2025C18.4469 27.965 18.4527 27.9591 18.2152 27.7216C17.9778 27.4841 18.0384 27.4235 17.8009 27.186C17.5634 26.9485 17.7063 26.8049 17.4688 26.5674C17.2313 26.3299 17.0591 26.5022 16.8209 26.2647C16.5828 26.0272 16.3994 26.2105 16.1619 25.973C15.9244 25.7355 16.1019 25.5581 15.8644 25.3199C15.6269 25.0818 15.6902 25.0191 15.4527 24.7816C15.2152 24.5441 15.1761 24.5833 14.9379 24.3458C14.7004 24.1083 14.7037 24.105 14.4662 23.8675C14.2287 23.63 14.2972 23.5622 14.0597 23.3247C13.8222 23.0872 13.7713 23.1381 13.5338 22.9006C13.2963 22.6631 13.3687 22.5907 13.1313 22.3532C12.8938 22.1157 12.9107 22.0987 12.6732 21.8612C12.4357 21.6237 12.176 21.8827 11.9385 21.6452C11.7011 21.4077 11.8629 21.2459 11.6254 21.0084C11.3879 20.7709 11.3605 20.7983 11.123 20.5608C10.8855 20.3233 11.0806 20.1283 10.8424 19.8908C10.6043 19.6533 10.4509 19.8066 10.2134 19.5691C9.97594 19.3316 9.79977 19.5078 9.56228 19.2703C9.32478 19.0328 9.56228 18.7953 9.32478 18.5578C9.08728 18.3203 9.09185 18.3151 8.85435 18.0776C8.61686 17.8401 8.55879 17.8975 8.32129 17.66C8.0838 17.4225 7.95852 17.5478 7.72103 17.3096C7.48353 17.0715 7.66491 16.8907 7.42676 16.6526C7.18862 16.4144 7.09597 16.5084 6.85782 16.2702C6.62032 16.0327 6.72928 15.9238 6.49113 15.6856C6.25298 15.4475 6.13554 15.5656 5.89804 15.3281C5.66055 15.0906 5.47981 15.2707 5.24232 15.0332C5.00482 14.7957 5.37085 14.4296 5.13336 14.1915C4.89586 13.954 4.5494 14.3005 4.31125 14.063C4.07376 13.8255 4.15727 13.7419 3.91977 13.5038C3.68228 13.2656 3.64443 13.3035 3.40694 13.066C3.16944 12.8285 3.27514 12.7221 3.03699 12.4846C2.79884 12.2472 2.88366 12.1623 2.64551 11.9248C2.40802 11.6873 2.14181 11.9529 1.90431 11.7147C1.66617 11.4766 1.95194 11.1915 1.7138 10.954C1.47565 10.7165 1.23815 10.954 1 10.7158" stroke="#FFD817" stroke-width="1.3" stroke-miterlimit="10" stroke-linecap="round"/>
<path d="M27.7262 26.1622C27.9722 26.4082 27.9943 26.3854 28.2397 26.6314C28.485 26.8767 28.5287 26.8336 28.774 27.0789C29.0194 27.3243 29.0207 27.3236 29.2667 27.5689C29.512 27.8143 29.5426 27.7843 29.788 28.0302C30.0333 28.2762 29.9452 28.3643 30.1905 28.6103C30.4359 28.8563 30.4391 28.853 30.6851 29.0983C30.9311 29.3436 30.9911 29.2836 31.2371 29.5296C31.4831 29.7756 31.5248 29.7332 31.7708 29.9785C32.0168 30.2238 31.8967 30.3445 32.1427 30.5905C32.3887 30.8365 32.3828 30.8424 32.6288 31.0883C32.7612 31.2208 32.9172 31.3487 33.0672 31.4485C33.2173 31.5483 33.353 31.5894 33.522 31.6579C33.4626 31.8928 33.4489 32.0892 33.3263 32.3045C33.2036 32.5198 33.0535 32.6999 32.8767 32.8774C32.6999 33.0549 32.4957 33.1606 32.2928 33.278C32.0833 33.3994 31.9072 33.6121 31.6782 33.6727C31.4491 33.7334 31.1869 33.721 30.9487 33.721C30.6231 33.721 30.3021 33.6205 29.9915 33.5051C29.8108 33.4378 29.6627 33.3132 29.497 33.2062C29.3312 33.0992 29.1707 33.0105 29.0298 32.8696C28.7845 32.6236 28.7943 32.6131 28.5489 32.3678C28.3036 32.1225 28.256 32.1695 28.0107 31.9241C27.7653 31.6788 27.7164 31.7271 27.4711 31.4811C27.2257 31.2351 27.3197 31.1412 27.0744 30.8952C26.829 30.6492 26.8421 30.6362 26.5961 30.3908C26.3501 30.1455 26.3404 30.1553 26.0944 29.9093C25.8484 29.6633 25.8693 29.6425 25.6239 29.3965C25.3786 29.1505 25.3284 29.2008 25.0831 28.9548C24.8371 28.7088 24.8462 28.6997 24.6002 28.4537C24.3543 28.2077 24.2799 28.2821 24.0345 28.0361" stroke="#FFD817" stroke-width="1.3" stroke-miterlimit="10" stroke-linecap="round"/>
<path d="M31.3506 24.2439C31.5966 24.4899 31.6592 24.4266 31.9046 24.6726C32.1499 24.9185 32.1943 24.8742 32.4396 25.1195C32.6849 25.3648 32.6184 25.432 32.8637 25.678C33.109 25.924 33.0771 25.956 33.323 26.2013C33.569 26.4466 33.5553 26.4603 33.8006 26.7063C34.046 26.9523 34.1595 26.8394 34.4048 27.0847C34.6501 27.33 34.5549 27.426 34.8009 27.6719C35.0468 27.9179 35.1519 27.8122 35.3979 28.0575C35.6438 28.3029 35.5147 28.4327 35.7606 28.678C36.0066 28.9234 36.0255 28.9051 36.2715 29.1504C36.4124 29.2914 36.6154 29.3605 36.7759 29.4643C36.9364 29.568 37.0499 29.6913 37.2313 29.7592C37.1726 29.9993 37.2176 30.2511 37.0936 30.4717C36.9696 30.6922 36.7778 30.8729 36.5964 31.0537C36.4229 31.2272 36.2095 31.3544 36.0066 31.4719C35.8037 31.5893 35.5616 31.65 35.3333 31.7113C35.1049 31.7727 34.8687 31.7459 34.6299 31.7459C34.4551 31.7459 34.2854 31.7805 34.1125 31.7472C33.9409 31.7139 33.785 31.6487 33.6212 31.5828C33.4529 31.5149 33.2278 31.541 33.0731 31.4386C32.9185 31.3362 32.8767 31.1039 32.7443 30.9721C32.4983 30.7261 32.4774 30.7477 32.2315 30.5023C31.9855 30.257 31.9587 30.2837 31.7134 30.0384C31.4681 29.7931 31.4655 29.7951 31.2201 29.5491C30.9748 29.3037 30.9898 29.2881 30.7438 29.0428C30.4979 28.7974 30.4607 28.8346 30.2153 28.5893C29.97 28.344 30.0013 28.312 29.756 28.066C29.5107 27.82 29.4709 27.8592 29.2256 27.6139C28.9802 27.3685 29.0363 27.3111 28.791 27.0658C28.5457 26.8205 28.5737 26.7918 28.3278 26.5458C28.0818 26.2998 28.0374 26.3442 27.7914 26.0988" stroke="#FFD817" stroke-width="1.3" stroke-miterlimit="10" stroke-linecap="round"/>
<path d="M27.2003 12.4801C27.4385 12.7183 27.6283 12.5284 27.8665 12.7665C28.1046 13.0047 27.9944 13.1156 28.2325 13.3538C28.4707 13.5919 28.4504 13.6121 28.6886 13.8503C28.9267 14.0884 29.0664 13.9488 29.3052 14.1869C29.544 14.4251 29.3482 14.6202 29.587 14.8583C29.8252 15.0965 30.002 14.9197 30.2401 15.1578C30.4783 15.396 30.4803 15.3947 30.7184 15.6328C30.9566 15.871 30.9716 15.8559 31.2104 16.0941C31.4492 16.3322 31.3735 16.4073 31.6123 16.6454C31.8511 16.8836 31.9418 16.7922 32.1799 17.0304C32.4181 17.2685 32.3437 17.3429 32.5825 17.5817C32.8213 17.8205 32.728 17.9125 32.9668 18.1507C33.2056 18.3888 33.3746 18.2198 33.6127 18.458C33.8509 18.6961 33.6434 18.9043 33.8815 19.1431C34.1197 19.3819 34.2163 19.2853 34.4544 19.5234C34.6926 19.7616 34.6247 19.8301 34.8628 20.0683C35.101 20.3064 35.1682 20.2399 35.4064 20.478C35.6445 20.7162 35.6425 20.7188 35.8807 20.9576C36.1188 21.1964 36.2278 21.0874 36.466 21.3256C36.7041 21.5637 36.5638 21.7046 36.802 21.9428C37.0401 22.1809 36.9873 22.2344 37.2254 22.4726C37.4636 22.7107 37.5699 22.6044 37.8087 22.8432C38.0475 23.082 37.9986 23.1303 38.2374 23.3684C38.4762 23.6066 38.4364 23.6464 38.6752 23.8852C38.914 24.124 38.9766 24.0607 39.2148 24.2995C39.4529 24.5383 39.4764 24.5148 39.7152 24.7536C39.954 24.9924 39.9481 24.9983 40.1863 25.2371C40.3599 25.4106 40.5288 25.5855 40.6456 25.7884C40.7624 25.9913 40.9066 26.2132 40.9679 26.4422C41.0293 26.6712 40.9914 26.9309 40.9914 27.1697C40.9914 27.4085 40.8322 27.612 40.7703 27.8443C40.7089 28.0733 40.887 28.4107 40.7657 28.6201C40.6443 28.8295 40.4179 28.9868 40.2444 29.1603C40.0708 29.3339 39.7557 29.3039 39.5528 29.4207C39.3498 29.5375 39.1854 29.7338 38.9564 29.7952C38.7274 29.8565 38.4912 29.9726 38.2524 29.9726C37.9262 29.9726 37.6149 29.8141 37.3063 29.698C37.1256 29.6308 36.9338 29.5851 36.768 29.4781C36.6023 29.3711 36.492 29.2132 36.3518 29.0722C36.1058 28.8263 36.113 28.8197 35.867 28.5738C35.6217 28.3284 35.4585 28.4916 35.2126 28.2456C34.9666 27.9996 35.0742 27.8926 34.8289 27.6466C34.5836 27.4013 34.5771 27.4072 34.3317 27.1612C34.0864 26.9152 34.2058 26.7958 33.9605 26.5498C33.7145 26.3038 33.7178 26.3012 33.4718 26.0553C33.2258 25.8093 33.0751 25.9607 32.8291 25.7147C32.5831 25.4687 32.5427 25.5098 32.2974 25.2638C32.0514 25.0178 32.1995 24.8697 31.9535 24.6238C31.7075 24.3778 31.5836 24.5017 31.3376 24.2558" stroke="#FFD817" stroke-width="1.3" stroke-miterlimit="10" stroke-linecap="round"/>
<path d="M45.774 1.04761C45.5352 1.28641 45.6109 1.36144 45.3721 1.60024C45.1333 1.83905 45.0628 1.76858 44.8246 2.00673C44.5865 2.24488 44.3725 2.03152 44.1343 2.27032C43.8962 2.50913 43.983 2.59656 43.7448 2.8347C43.5067 3.07285 43.6032 3.17007 43.3644 3.40887C43.1256 3.64767 43.2502 3.77229 43.0121 4.01044C42.774 4.24859 42.5906 4.0659 42.3518 4.30471C42.113 4.54351 41.9682 4.39801 41.7294 4.63681C41.4906 4.87561 41.67 5.05504 41.4312 5.29384C41.1924 5.53264 41.3594 5.69902 41.1213 5.93782C40.8831 6.17662 40.6939 5.98806 40.4557 6.22621C40.2176 6.46436 40.2333 6.48067 39.9945 6.71947C39.7557 6.95827 39.8326 7.03461 39.5938 7.27341C39.355 7.51222 39.2813 7.43783 39.0425 7.67664C38.8037 7.91544 38.6406 7.75167 38.4018 7.99047C38.163 8.22927 38.4475 8.51309 38.2087 8.7519C37.9699 8.9907 37.9646 8.98548 37.7258 9.22428C37.487 9.46308 37.1804 9.15642 36.9416 9.39522C36.7726 9.56421 36.7745 9.90284 36.5703 10.0125C36.3661 10.1221 36.1156 10.1084 35.8865 10.1553C35.6575 10.2023 35.4331 10.3498 35.1982 10.3289C34.9633 10.308 34.7578 10.1645 34.5359 10.0757C34.2247 9.95047 34.256 9.87283 33.9448 9.74821C33.6336 9.62359 33.5618 9.80236 33.2506 9.67709C32.9394 9.55182 33.0105 9.3763 32.6993 9.25103C32.388 9.12576 32.3032 9.33715 31.992 9.21253C31.6808 9.08726 31.6892 9.06704 31.378 8.94176C31.0668 8.81649 31.0466 8.86738 30.7353 8.74211C30.4241 8.61684 30.5455 8.31475 30.2349 8.18947C29.9243 8.0642 29.7723 8.44132 29.4611 8.31605C29.1499 8.19078 29.1936 8.08182 28.8823 7.95654C28.5711 7.83127 28.5359 7.91935 28.224 7.79408C27.9121 7.66881 27.901 7.69751 27.5898 7.57224C27.3778 7.48677 27.2381 7.27733 27.017 7.25449C26.7958 7.23166 26.6046 7.36606 26.3841 7.40521C26.1635 7.44436 26.0135 7.53179 25.8106 7.63096C25.6076 7.73014 25.5026 7.85019 25.3329 8.00352C25.0817 8.23123 24.8808 8.00939 24.6296 8.23645C24.3784 8.46351 24.3582 8.44132 24.107 8.66903C23.8558 8.89674 24.0463 9.10684 23.7951 9.33389C23.5439 9.56095 23.341 9.33781 23.0898 9.56552C22.8386 9.79323 22.9058 9.86761 22.6546 10.0947C22.4034 10.3217 22.5711 10.5077 22.3199 10.7354C22.0687 10.9631 21.8377 10.708 21.5865 10.9357C21.3353 11.1634 21.2968 11.121 21.0456 11.3487C20.7944 11.5764 20.9706 11.7708 20.7194 11.9986C20.4682 12.2263 20.3103 12.0521 20.0584 12.2798C19.8066 12.5075 19.7929 12.4918 19.5417 12.7202C19.3818 12.865 19.2468 13.0673 19.1352 13.2408C19.0236 13.4144 18.839 13.6101 18.775 13.8085C18.7111 14.0068 19.068 14.2854 19.0576 14.4955C19.0471 14.7056 18.7744 14.9209 18.8188 15.1271C18.8631 15.3333 18.824 15.608 18.9212 15.7972C19.0184 15.9864 19.1489 16.2122 19.2944 16.372C19.4484 16.5423 19.8359 16.4575 20.0219 16.5736C20.2078 16.6898 20.3018 17.108 20.5152 17.1687C20.7285 17.2294 21.0247 17.2052 21.2479 17.2052C21.4443 17.2052 21.5956 16.8085 21.7881 16.7609C21.9806 16.7133 22.115 16.6513 22.2912 16.5567C22.4615 16.4653 22.7525 16.5651 22.9019 16.4294C23.1511 16.203 22.9482 15.9792 23.1974 15.7528C23.4467 15.5264 23.5791 15.6719 23.829 15.4455C24.0789 15.2191 23.9967 15.1291 24.2466 14.9027C24.4965 14.6763 24.6707 14.8687 24.9206 14.6417C25.1705 14.4146 25.0772 14.3128 25.3271 14.0858C25.577 13.8594 25.5959 13.8803 25.8458 13.6539C26.0957 13.4274 25.9945 13.3165 26.2444 13.0895C26.4943 12.8624 26.5602 12.9348 26.8101 12.7084C27.06 12.482 27.291 12.7365 27.5409 12.5094" stroke="white" stroke-width="1.3" stroke-miterlimit="10" stroke-linecap="round"/>
<path d="M40.0617 24.4737C40.2966 24.2388 40.431 24.3732 40.6659 24.1383C40.9007 23.9034 40.8322 23.8349 41.0671 23.6C41.302 23.3651 41.1898 23.2529 41.4247 23.018C41.6596 22.7831 41.8272 22.9515 42.0621 22.7166C42.297 22.4817 42.3042 22.4895 42.5391 22.2546C42.774 22.0198 42.6891 21.9349 42.924 21.7C43.1589 21.4652 43.1818 21.488 43.4166 21.2531C43.6515 21.0182 43.6868 21.0535 43.9217 20.8186C44.1565 20.5837 44.1252 20.5524 44.3601 20.3175C44.595 20.0826 44.4958 19.9834 44.7307 19.7485C44.9656 19.5136 44.9434 19.4915 45.1783 19.2566C45.4132 19.0217 45.4067 19.0152 45.6415 18.7803C45.8764 18.5454 45.9384 18.6074 46.1733 18.3725C46.4082 18.1376 46.3521 18.0815 46.587 17.8466C46.8219 17.6117 46.9426 17.7324 47.1781 17.4975C47.4136 17.2626 47.4743 17.324 47.7092 17.0891C47.9441 16.8542 47.7686 16.678 48.0035 16.4432C48.2383 16.2083 48.2292 16.1985 48.4641 15.9636C48.699 15.7287 48.7094 15.7385 48.9443 15.5036C49.1792 15.2687 49.3332 15.422 49.5681 15.1872C49.803 14.9523 49.7697 14.9183 50.0046 14.6835C50.2395 14.4486 50.1879 14.3964 50.4228 14.1615C50.6577 13.9266 50.7281 13.9964 50.963 13.7615C51.1979 13.5266 51.1451 13.4731 51.38 13.2383C51.6148 13.0034 51.5737 12.9616 51.8086 12.7267C52.0435 12.4918 52.0129 12.4612 52.2484 12.2263C52.4839 11.9914 52.5948 12.103 52.8304 11.8674C53.0653 11.6325 53.1246 11.6913 53.3595 11.4564C53.5944 11.2215 53.4783 11.1047 53.7132 10.8692C53.9481 10.6336 53.9069 10.5919 54.1418 10.3563C54.3767 10.1208 54.3448 10.0882 54.5796 9.85327" stroke="white" stroke-width="1.3" stroke-miterlimit="10"/>
</svg>
