<svg width="53" height="48" viewBox="0 0 53 48" fill="none" xmlns="http://www.w3.org/2000/svg">
<path d="M14.8955 5.59143C15.1265 5.8224 15.0984 5.85046 15.3294 6.08208C15.5604 6.31306 15.5363 6.3372 15.7672 6.56817C15.9982 6.79914 16.0223 6.77565 16.2533 7.00662C16.4843 7.2376 16.4765 7.24543 16.7074 7.47705C16.9384 7.70867 16.9743 7.67214 17.2053 7.90376C17.4362 8.13539 17.4375 8.13343 17.6685 8.36505C17.8995 8.59668 17.8577 8.63778 18.0887 8.86941C18.3197 9.10103 18.3379 9.08276 18.5689 9.31373C18.7999 9.54471 18.7679 9.57733 18.9995 9.80895C19.2312 10.0406 19.2847 9.98708 19.5156 10.218" stroke="#0B9B93" stroke-width="1.17443" stroke-linecap="round"/>
<path d="M37.9947 5.63904C37.7637 5.87001 37.7552 5.86153 37.5236 6.0925C37.292 6.32347 37.2952 6.32608 37.0643 6.55705C36.8333 6.78803 36.8248 6.77954 36.5939 7.01117C36.3629 7.24279 36.3544 7.23366 36.1234 7.46463C35.8925 7.6956 35.8774 7.6806 35.6465 7.91157C35.4155 8.14254 35.4599 8.18691 35.2282 8.41788C34.9966 8.64885 34.9875 8.63972 34.7565 8.87069C34.5255 9.10166 34.5301 9.10688 34.2991 9.33785C34.0682 9.56883 34.0408 9.54207 33.8091 9.7737C33.5775 10.0053 33.5808 10.0079 33.3492 10.2396" stroke="#0B9B93" stroke-width="1.17443" stroke-linecap="round"/>
<path d="M26.4148 1C26.4148 1.32688 26.4572 1.32688 26.4572 1.65377C26.4572 1.98065 26.3821 1.98065 26.3821 2.30754C26.3821 2.63442 26.4461 2.63442 26.4461 2.96131C26.4461 3.28819 26.4474 3.28819 26.4474 3.61507C26.4474 3.94196 26.4409 3.94196 26.4409 4.26884C26.4409 4.59573 26.3971 4.59573 26.3971 4.92261C26.3971 5.24949 26.3939 5.24949 26.3939 5.57638C26.3939 5.90326 26.48 5.90326 26.48 6.23015C26.48 6.55703 26.4559 6.55703 26.4559 6.88457C26.4559 7.2121 26.4781 7.21145 26.4781 7.53899" stroke="#0B9B93" stroke-width="1.17443" stroke-linecap="round"/>
<path d="M34.1106 33.5515C33.9351 33.2807 34.2163 33.0993 34.0408 32.8285C33.8652 32.5578 33.9612 32.4964 33.7856 32.2257C33.6101 31.9549 33.5018 32.0254 33.327 31.7546C33.1521 31.4838 33.1802 31.4655 33.0046 31.1954C32.8298 30.9247 32.7913 30.9494 32.6164 30.6787C32.4416 30.4079 32.4363 30.4112 32.2615 30.1404C32.0866 29.8696 31.8746 30.0066 31.6991 29.7359C31.5236 29.4651 31.6423 29.3888 31.4668 29.118C31.2913 28.8472 31.4557 28.7409 31.2802 28.4701C31.1047 28.1993 31.0055 28.2639 30.8313 27.9925C30.7125 27.8026 30.6179 27.5534 30.4548 27.417C30.2917 27.2806 30.0059 27.2669 29.8056 27.1867C29.6053 27.1064 29.3822 27.109 29.1649 27.094C28.9476 27.079 28.7447 27.0973 28.5314 27.1508C28.318 27.2043 28.1236 27.2611 27.933 27.3798C27.8932 27.4046 27.738 27.2669 27.7001 27.293C27.5116 27.4294 27.6146 27.8502 27.4861 28.0316C27.3576 28.213 27.1481 28.3272 27.0835 28.5432C27.0189 28.7591 27.0966 28.966 27.1044 29.193C27.1109 29.3724 27.062 29.533 27.1155 29.7078C27.1677 29.8775 27.0007 30.1685 27.0992 30.3257C27.2806 30.616 27.5957 30.4196 27.7771 30.71C27.9585 31.0003 27.6192 31.2124 27.8006 31.5027C27.982 31.7931 28.2691 31.6143 28.4505 31.9047C28.6318 32.195 28.4061 32.3366 28.5881 32.6269C28.7702 32.9173 28.7982 32.8997 28.9796 33.1907C29.161 33.4817 29.2184 33.4451 29.4004 33.7361C29.5825 34.0271 29.7456 33.9247 29.927 34.215C30.1084 34.5054 29.8885 34.643 30.0705 34.934C30.2526 35.225 30.2643 35.2172 30.4463 35.5076C30.6284 35.7979 30.7758 35.7059 30.9572 35.9963C31.1386 36.2866 31.0016 36.3727 31.1836 36.6631C31.3657 36.9534 31.6332 36.7864 31.8146 37.0767C31.9959 37.3671 31.9705 37.3834 32.1519 37.6744C32.3333 37.9654 32.0312 38.154 32.2132 38.445C32.3946 38.7359 32.6549 38.5728 32.837 38.8638C33.019 39.1548 32.9016 39.2279 33.0836 39.5189C33.2656 39.8099 33.1012 39.9123 33.2826 40.2033C33.3505 40.3123 33.3785 40.2986 33.4496 40.4056C33.5605 40.5615 33.7954 40.6379 33.9364 40.7592C34.0773 40.8806 34.2515 40.9732 34.4185 41.0587C34.7311 41.1866 34.7134 41.2323 35.0286 41.353C35.3437 41.4737 35.2876 41.6205 35.6028 41.7412C35.9179 41.8619 35.9629 41.7425 36.2781 41.8626C36.5932 41.9826 36.68 41.7549 36.9958 41.8749C37.3116 41.995 37.2228 42.2247 37.538 42.3447C37.8531 42.4648 37.8896 42.3695 38.2048 42.4896C38.5199 42.6096 38.4358 42.8295 38.7509 42.9496C39.066 43.0696 39.098 42.9861 39.4131 43.1062C39.7283 43.2262 39.7707 43.1159 40.0858 43.236C40.401 43.356 40.3657 43.448 40.6815 43.5681C40.9967 43.6881 41.1128 43.3841 41.4279 43.5042C41.7431 43.6242 41.6119 43.9681 41.9271 44.0881C42.2422 44.2082 42.3192 44.0065 42.6344 44.1266C42.9495 44.2467 42.9084 44.355 43.2235 44.475C43.5387 44.5951 43.5406 44.5898 43.8564 44.7099C44.1722 44.83 44.1161 44.9768 44.4312 45.0968C44.7464 45.2169 44.824 45.014 45.1392 45.1347C45.4543 45.2554 45.4002 45.3976 45.7153 45.5183C46.0304 45.639 46.0611 45.5588 46.3762 45.6795C46.6914 45.7995 46.6953 45.7904 47.0104 45.9104C47.3256 46.0305 47.3301 46.0194 47.6453 46.1395C47.9604 46.2595 47.9278 46.3456 48.2429 46.4663C48.5581 46.587 48.5424 46.6275 48.8582 46.7482C49.174 46.8689 49.2653 46.6281 49.5805 46.7482C49.8956 46.8683 49.8584 46.9674 50.1736 47.0875C50.4887 47.2075 50.4698 47.2591 50.7849 47.3798" stroke="#F5E928" stroke-width="1.17443" stroke-linecap="round" stroke-linejoin="round"/>
<path d="M52.206 38.2648C51.8661 38.1885 51.9052 38.0149 51.5659 37.9386C51.2266 37.8622 51.2547 37.7363 50.9148 37.66C50.5748 37.5836 50.584 37.5445 50.244 37.4688C49.9041 37.3931 49.8454 37.6554 49.5054 37.5791C49.1655 37.5027 49.1936 37.3794 48.8536 37.3031C48.5137 37.2267 48.5437 37.0943 48.2044 37.018C47.8652 36.9416 47.751 37.4479 47.4117 37.3716C47.0724 37.2952 47.1859 36.7889 46.846 36.7126C46.5061 36.6363 46.4173 37.0317 46.0774 36.9553C45.7375 36.879 45.8242 36.4934 45.4843 36.417C45.1444 36.3407 45.0837 36.6108 44.7438 36.5345C44.4038 36.4581 44.4169 36.3981 44.0763 36.3257C43.8584 36.2878 43.6261 36.3172 43.4114 36.2702C43.1968 36.2232 42.9776 36.1763 42.7648 36.1195C42.5521 36.0627 42.342 35.9851 42.132 35.9185C41.9219 35.852 41.6896 35.8376 41.4828 35.762C41.2759 35.6863 41.0476 35.6471 40.8446 35.5623C40.6411 35.4775 40.4245 35.4031 40.2255 35.3091C40.0265 35.2152 39.9162 34.934 39.7211 34.8315C39.526 34.7291 39.3531 34.5901 39.1632 34.4786C38.9734 34.367 38.7985 34.2358 38.6132 34.1164C38.4279 33.9964 38.0567 34.1452 37.8766 34.0173C37.6965 33.8894 37.8237 33.3511 37.6495 33.2154C37.4753 33.0797 37.2952 32.9694 37.1276 32.8259C36.9599 32.6823 36.6376 32.7202 36.4764 32.5695C36.3152 32.4187 36.2063 32.2171 36.0517 32.0592C35.897 31.9013 35.8957 31.611 35.7489 31.4466C35.6021 31.2821 35.3392 31.2273 35.1995 31.0564C35.0599 30.8854 35.0305 30.6382 34.8987 30.4607C34.7669 30.2832 34.2502 30.3804 34.1262 30.1977C34.0023 30.0151 34.123 29.6693 34.0075 29.4813C33.892 29.2934 33.5501 29.2334 33.4431 29.0403C33.3361 28.8471 33.6349 28.4413 33.5364 28.2436C33.4385 28.0466 33.1939 27.9252 33.1038 27.723C33.019 27.5324 32.8604 27.3726 32.7867 27.1781C32.713 26.9837 32.4409 26.8493 32.3776 26.651C32.3143 26.4526 32.5982 26.1499 32.5453 25.9476C32.4925 25.7453 32.3313 25.5718 32.2902 25.3676C32.2491 25.1633 32.2804 24.948 32.2504 24.7412C32.2204 24.535 32.328 24.3197 32.3091 24.1116C32.2902 23.9034 32.3222 23.7051 32.315 23.4963C32.3032 23.1511 32.2158 23.1544 32.2041 22.8093C32.1923 22.4641 32.2758 22.4615 32.2641 22.1163C32.2524 21.7712 32.1917 21.7738 32.1799 21.4286C32.1682 21.0835 31.9268 21.092 31.9144 20.7475C31.902 20.403 31.7415 20.4082 31.7291 20.063C31.7167 19.7179 31.7402 19.7172 31.7278 19.3721C31.7154 19.0269 32.0227 19.0165 32.0103 18.6713C31.9985 18.3262 31.8204 18.3327 31.8087 17.9875C31.7969 17.6424 32.099 17.632 32.0866 17.2875C32.0742 16.943 31.7363 16.9547 31.7239 16.6095C31.7115 16.2644 31.5712 16.2696 31.5594 15.9245C31.5477 15.5793 31.5496 15.5793 31.5379 15.2342C31.5262 14.889 31.6025 14.8864 31.5901 14.5412C31.5777 14.1961 31.8974 14.185 31.8857 13.8398C31.8739 13.4947 31.6051 13.5038 31.5927 13.1587C31.5849 12.9349 31.6573 12.7111 31.5568 12.5173C31.4563 12.3235 31.35 12.0945 31.1706 11.9614C30.9709 11.8126 30.6212 11.9751 30.4215 11.8818C30.1971 11.7774 30.0894 11.4166 29.8709 11.3755C29.6308 11.3305 29.3574 11.1367 29.1329 11.1602C28.8941 11.1843 28.7786 11.7004 28.5672 11.7911C28.3558 11.8818 28.025 11.7611 27.8476 11.9118C27.6701 12.0625 27.4868 12.2446 27.3608 12.4429C27.2349 12.6413 26.9968 12.839 26.9341 13.068C26.8715 13.297 26.7919 13.5886 26.8004 13.8294C26.8121 14.1589 26.9283 14.1543 26.9393 14.4838C26.9511 14.8133 27.0855 14.8081 27.0966 15.1376C27.1077 15.4671 27.1533 15.4651 27.1644 15.7946C27.1762 16.1241 27.3843 16.1163 27.3961 16.4458C27.4078 16.7753 26.9126 16.7922 26.9237 17.1217C26.9348 17.4512 27.4241 17.4343 27.4359 17.7631C27.4476 18.0919 27.4293 18.0932 27.4404 18.4221C27.4515 18.7509 27.0105 18.7666 27.0222 19.0961C27.034 19.4256 27.1299 19.4223 27.141 19.7512C27.1527 20.0807 27.3843 20.0722 27.3961 20.4017C27.4078 20.7312 27.184 20.739 27.1951 21.0678C27.2062 21.3967 27.5285 21.3862 27.5403 21.7151C27.552 22.0446 27.1514 22.0583 27.1625 22.3878C27.1736 22.7173 27.259 22.714 27.2708 23.0435C27.2825 23.373 27.6277 23.3606 27.6388 23.6901C27.6505 24.0196 27.355 24.03 27.3667 24.3595C27.3785 24.689 27.2055 24.6949 27.2173 25.0244C27.229 25.3539 27.2055 25.3545 27.2173 25.6847C27.229 26.0148 27.3687 26.0096 27.3798 26.3391C27.3902 26.6386 27.3373 27.0346 27.4587 27.3086C27.5109 27.4261 27.6394 27.3935 27.7125 27.4998C27.7504 27.4724 27.841 27.3217 27.8808 27.2969C28.0707 27.1781 28.365 27.368 28.5712 27.3165C28.7773 27.2649 28.9424 27.1592 29.1577 27.1742C29.373 27.1892 29.5929 27.1273 29.7952 27.2082C29.9974 27.2891 30.1834 27.3948 30.3524 27.5363C30.5214 27.6779 30.5305 27.9148 30.6492 28.1046" stroke="#F5E928" stroke-width="1.17443" stroke-linecap="round" stroke-linejoin="round"/>
<path d="M18.7522 33.3198C18.9271 33.049 19.1039 33.1632 19.2788 32.8925C19.4536 32.6217 19.526 32.6687 19.7016 32.3979C19.8771 32.1271 19.8438 32.1062 20.0187 31.8355C20.1935 31.5647 20.2353 31.5914 20.4101 31.3207C20.585 31.0499 20.4584 30.9683 20.6339 30.6976C20.8094 30.4268 20.7064 30.3602 20.8812 30.0895C21.0567 29.8187 21.2375 29.9361 21.413 29.6654C21.5885 29.3946 21.644 29.4305 21.8188 29.1597C21.9937 28.8889 21.9434 28.8557 22.1189 28.5849C22.2945 28.3141 22.2879 28.3096 22.4621 28.0381C22.5809 27.8483 22.5965 27.5455 22.7597 27.4085C22.9228 27.2715 23.1968 27.2226 23.3971 27.1416C23.5974 27.0607 23.8303 27.0033 24.0476 26.9883C24.2649 26.9733 24.4424 27.2245 24.6564 27.278C24.8704 27.3315 25.1366 27.1938 25.3271 27.3126C25.3669 27.3374 25.472 27.2774 25.5104 27.3035C25.699 27.4398 25.6051 27.847 25.7336 28.0283C25.866 28.2149 25.8954 28.3768 25.96 28.5927C26.0246 28.8087 26.1818 28.9646 26.1734 29.1917C26.1668 29.3711 26.0774 29.5042 26.0233 29.6797C25.9691 29.8552 25.9117 29.9727 25.8132 30.1306C25.6318 30.4209 25.9456 30.6173 25.7643 30.9083C25.5829 31.1993 25.4348 31.1067 25.2534 31.397C25.072 31.6874 24.9598 31.6175 24.7777 31.9079C24.5957 32.1982 24.5468 32.1676 24.3647 32.4579C24.1827 32.7483 24.2819 32.8102 24.1005 33.1006C23.9191 33.3909 23.8447 33.3446 23.6627 33.635C23.4806 33.9253 23.7475 34.0923 23.5661 34.3827C23.3847 34.6737 23.2823 34.6097 23.1009 34.9001C22.9195 35.1904 22.712 35.0612 22.5306 35.3516C22.3493 35.6419 22.6729 35.8449 22.4915 36.1352C22.3101 36.4255 22.0348 36.254 21.8534 36.5443C21.672 36.8346 21.7412 36.8784 21.5591 37.1687C21.3771 37.4591 21.2466 37.3775 21.0652 37.6685C20.8838 37.9595 21.1037 38.0965 20.9217 38.3875C20.7396 38.6785 20.8062 38.7196 20.6241 39.01C20.4421 39.3003 20.3299 39.2305 20.1479 39.5215C19.9658 39.8125 19.896 39.7688 19.714 40.0591C19.6461 40.1674 19.7368 40.2255 19.6663 40.3318C19.5554 40.4878 19.3473 40.5432 19.2063 40.6653C19.0654 40.7873 18.9108 40.8277 18.7437 40.9132C18.4312 41.0411 18.4188 40.9974 18.1037 41.1174C17.7885 41.2375 17.8309 41.3484 17.5158 41.4684C17.2007 41.5885 17.1687 41.505 16.8536 41.625C16.5384 41.7451 16.6128 41.9408 16.2977 42.0609C15.9825 42.1809 15.931 42.0452 15.6158 42.1653C15.3007 42.2853 15.3046 42.2964 14.9895 42.4165C14.6743 42.5365 14.7272 42.6748 14.412 42.7949C14.0969 42.9149 14.1341 43.0122 13.819 43.1322C13.5038 43.2523 13.4066 42.9965 13.0915 43.1172C12.7763 43.2379 12.805 43.3129 12.4899 43.433C12.1747 43.5531 12.1845 43.5798 11.8694 43.6999C11.5543 43.8199 11.5725 43.8682 11.2574 43.9889C10.9422 44.1096 10.9651 44.169 10.6499 44.289C10.3348 44.4091 10.3753 44.5161 10.0601 44.6361C9.74498 44.7562 9.5949 44.3634 9.27976 44.4835C8.96462 44.6035 8.99333 44.6799 8.6782 44.7999C8.36306 44.92 8.45636 45.1653 8.14122 45.286C7.82608 45.4061 7.78041 45.286 7.46461 45.4061C7.14882 45.5261 7.22059 45.7127 6.90545 45.8328C6.59031 45.9528 6.54594 45.8367 6.2308 45.9574C5.91566 46.0781 5.95546 46.1831 5.64032 46.3032C5.32518 46.4232 5.1986 46.0911 4.88281 46.2112C4.56702 46.3312 4.56115 46.3149 4.24601 46.4356C3.93087 46.5563 4.00068 46.7384 3.68489 46.8591C3.3691 46.9798 3.40825 47.0809 3.09246 47.2016C2.77666 47.3223 2.74078 47.2264 2.42499 47.3471" stroke="#0B9B93" stroke-width="1.17443" stroke-miterlimit="10" stroke-linecap="round"/>
<path d="M1 38.2042C1.33993 38.1278 1.34515 38.1533 1.68509 38.0769C2.02502 38.0006 2.04395 38.0874 2.38388 38.011C2.72381 37.9347 2.65791 37.6424 2.99784 37.5661C3.33778 37.4897 3.37171 37.6417 3.71099 37.5654C4.05027 37.4891 4.05093 37.4897 4.39086 37.414C4.73079 37.3384 4.74384 37.3971 5.08312 37.3214C5.4224 37.2457 5.3689 37.0069 5.70883 36.9306C6.04876 36.8542 6.11271 37.1413 6.45264 37.065C6.79257 36.9886 6.73581 36.7355 7.07574 36.6591C7.41567 36.5828 7.42025 36.603 7.75953 36.5267C8.09946 36.4503 8.13926 36.6285 8.47919 36.5521C8.81912 36.4758 8.78129 36.3009 9.12187 36.2285C9.33979 36.1907 9.5538 36.143 9.76846 36.0954C9.98442 36.0478 10.2128 36.0713 10.4255 36.0145C10.6382 35.9577 10.8985 36.0537 11.108 35.9878C11.3174 35.9219 11.4381 35.5917 11.6449 35.516C11.8518 35.4403 12.0534 35.3673 12.2563 35.2824C12.4592 35.1976 12.82 35.4606 13.0197 35.3673C13.2193 35.2733 13.3616 35.0482 13.5567 34.9451C13.7518 34.842 13.7785 34.4427 13.9684 34.3311C14.1582 34.2196 14.5301 34.4081 14.7154 34.2881C14.9007 34.168 15.1617 34.1465 15.3418 34.0186C15.5219 33.8907 15.3999 33.359 15.5734 33.2233C15.747 33.0876 16.1659 33.2559 16.3335 33.1123C16.5012 32.9688 16.4014 32.5303 16.5626 32.3796C16.7237 32.2289 17.0806 32.2857 17.2346 32.1278C17.3886 31.9705 17.3977 31.6802 17.5445 31.5158C17.6913 31.3513 18.041 31.3618 18.1807 31.1908C18.3203 31.0199 18.5154 30.8848 18.6472 30.7074C18.779 30.5305 18.6113 30.141 18.7353 29.9577C18.8592 29.7743 19.2716 29.7796 19.3871 29.591C19.5026 29.4024 19.438 29.1069 19.545 28.9137C19.652 28.7206 19.7577 28.5294 19.8562 28.3317C19.9541 28.1347 20.0395 27.9331 20.1296 27.7308C20.2144 27.5403 20.1563 27.2969 20.2301 27.1025C20.3044 26.9074 20.7435 26.8389 20.8068 26.6406C20.8701 26.4422 20.8238 26.2028 20.876 26.0011C20.9282 25.7995 20.9686 25.5894 21.0098 25.3852C21.0509 25.181 21.0502 24.965 21.0802 24.7589C21.1102 24.5527 21.2916 24.3569 21.3105 24.1488C21.3295 23.9407 20.8969 23.7064 20.9047 23.4976C20.9165 23.1525 21.3686 23.1688 21.381 22.8237C21.3934 22.4785 21.2296 22.4733 21.2414 22.1281C21.2531 21.783 21.2472 21.783 21.2596 21.4378C21.272 21.0927 21.1526 21.0888 21.1644 20.7436C21.1761 20.3984 21.1141 20.3965 21.1259 20.0513C21.1376 19.7062 21.3451 19.7134 21.3575 19.3689C21.3699 19.0244 21.2649 19.0204 21.2773 18.6753C21.289 18.3301 21.058 18.3223 21.0698 17.9772C21.0815 17.632 21.5441 17.6483 21.5559 17.3038C21.5676 16.9593 21.6133 16.9606 21.6257 16.6155C21.6381 16.2703 21.5193 16.2664 21.5311 15.9212C21.5428 15.5761 21.4945 15.5741 21.5069 15.2296C21.5193 14.8851 21.319 14.878 21.3308 14.5328C21.3425 14.1876 21.4521 14.1916 21.4639 13.8464C21.4756 13.5013 21.2407 13.4928 21.2531 13.1476C21.2609 12.9238 21.4143 12.6367 21.5154 12.443C21.6165 12.2492 21.7679 11.9621 21.9473 11.8283C22.147 11.6796 22.5293 11.8309 22.729 11.7376C22.9534 11.6333 23.1498 11.5308 23.3684 11.4904C23.6085 11.4453 23.8219 11.5191 24.0463 11.5419C24.2851 11.566 24.4404 11.6998 24.6518 11.7898C24.8632 11.8799 25.0726 11.904 25.2501 12.0547C25.4276 12.2055 25.8432 12.1748 25.9698 12.3725C26.0964 12.5702 25.8921 12.9297 25.9541 13.1587C26.0161 13.3877 26.3541 13.5867 26.3456 13.8275C26.3339 14.157 26.3436 14.157 26.3319 14.4865C26.3201 14.816 25.8608 14.7997 25.8497 15.1285C25.838 15.458 26.0676 15.4658 26.0559 15.7953C26.0442 16.1248 26.206 16.13 26.1949 16.4595C26.1838 16.789 26.1466 16.7877 26.1355 17.1166C26.1238 17.446 26.1499 17.4467 26.1381 17.7762C26.1264 18.1057 26.2484 18.1096 26.2366 18.4391C26.2249 18.7686 25.7369 18.7516 25.7251 19.0805C25.7134 19.4093 26.1225 19.4243 26.1114 19.7532C26.1003 20.082 25.9182 20.0761 25.9065 20.4056C25.8947 20.7351 26.0155 20.739 26.0037 21.0685C25.992 21.398 25.977 21.3974 25.9652 21.7269C25.9535 22.0564 25.6077 22.044 25.5966 22.3735C25.5855 22.7029 25.6116 22.7036 25.5998 23.0331C25.5881 23.3626 25.5672 23.3619 25.5555 23.6908C25.5437 24.0196 25.9163 24.0333 25.9045 24.3628C25.8928 24.6923 25.592 24.6819 25.5803 25.0114C25.5685 25.3409 25.6931 25.3454 25.6814 25.6749C25.6696 26.0044 25.7355 26.007 25.7238 26.3365C25.7134 26.636 25.4047 26.8252 25.2834 27.0992C25.2312 27.2167 25.5842 27.3994 25.5111 27.5057C25.4733 27.4783 25.4021 27.2806 25.3623 27.2558C25.1725 27.1371 24.9095 27.1377 24.7033 27.0862C24.4972 27.0346 24.2584 26.9263 24.0431 26.9413C23.8277 26.9564 23.6509 27.1939 23.4487 27.2754C23.2464 27.357 23.1087 27.4855 22.9397 27.6271C22.7707 27.7687 22.682 27.9135 22.5633 28.1034" stroke="#0B9B93" stroke-width="1.17443" stroke-miterlimit="10" stroke-linecap="round"/>
</svg>
