<svg width="53" height="49" viewBox="0 0 53 49" fill="none" xmlns="http://www.w3.org/2000/svg">
<path d="M14.8955 5.59131C15.1265 5.82228 15.0984 5.85034 15.3294 6.08196C15.5604 6.31293 15.5362 6.33707 15.7672 6.56805C15.9982 6.79902 16.0223 6.77553 16.2533 7.0065C16.4843 7.23747 16.4764 7.2453 16.7074 7.47693C16.9384 7.70855 16.9742 7.67201 17.2052 7.90364C17.4362 8.13526 17.4375 8.13331 17.6685 8.36493C17.8994 8.59655 17.8577 8.63766 18.0887 8.86928C18.3196 9.10091 18.3379 9.08264 18.5689 9.31361C18.7998 9.54458 18.7679 9.57721 18.9995 9.80883C19.2311 10.0405 19.2846 9.98695 19.5156 10.2179" stroke="white" stroke-width="1.3" stroke-linecap="round"/>
<path d="M37.9947 5.63916C37.7637 5.87013 37.7552 5.86165 37.5236 6.09262C37.292 6.32359 37.2952 6.3262 37.0642 6.55718C36.8333 6.78815 36.8248 6.77967 36.5938 7.01129C36.3628 7.24292 36.3544 7.23378 36.1234 7.46475C35.8924 7.69573 35.8774 7.68072 35.6464 7.91169C35.4155 8.14266 35.4598 8.18703 35.2282 8.418C34.9966 8.64897 34.9875 8.63984 34.7565 8.87081C34.5255 9.10178 34.5301 9.107 34.2991 9.33798C34.0681 9.56895 34.0407 9.5422 33.8091 9.77382C33.5775 10.0054 33.5807 10.0081 33.3491 10.2397" stroke="white" stroke-width="1.3" stroke-linecap="round"/>
<path d="M26.4147 1C26.4147 1.32688 26.4571 1.32688 26.4571 1.65377C26.4571 1.98065 26.3821 1.98065 26.3821 2.30754C26.3821 2.63442 26.446 2.63442 26.446 2.96131C26.446 3.28819 26.4473 3.28819 26.4473 3.61507C26.4473 3.94196 26.4408 3.94196 26.4408 4.26884C26.4408 4.59573 26.3971 4.59573 26.3971 4.92261C26.3971 5.24949 26.3938 5.24949 26.3938 5.57638C26.3938 5.90326 26.4799 5.90326 26.4799 6.23015C26.4799 6.55703 26.4558 6.55703 26.4558 6.88457C26.4558 7.2121 26.478 7.21145 26.478 7.53899" stroke="white" stroke-width="1.3" stroke-linecap="round"/>
<path d="M34.1106 33.5514C33.9351 33.2806 34.2163 33.0992 34.0408 32.8284C33.8653 32.5577 33.9612 32.4963 33.7857 32.2255C33.6102 31.9548 33.5019 32.0252 33.327 31.7545C33.1522 31.4837 33.1802 31.4654 33.0047 31.1953C32.8298 30.9245 32.7913 30.9493 32.6165 30.6786C32.4416 30.4078 32.4364 30.411 32.2615 30.1403C32.0867 29.8695 31.8746 30.0065 31.6991 29.7357C31.5236 29.465 31.6424 29.3886 31.4668 29.1179C31.2913 28.8471 31.4557 28.7407 31.2802 28.47C31.1047 28.1992 31.0055 28.2638 30.8313 27.9924C30.7126 27.8025 30.618 27.5533 30.4549 27.4169C30.2918 27.2805 30.006 27.2668 29.8057 27.1866C29.6054 27.1063 29.3822 27.1089 29.1649 27.0939C28.9477 27.0789 28.7448 27.0972 28.5314 27.1507C28.3181 27.2042 28.1236 27.261 27.9331 27.3797C27.8933 27.4045 27.738 27.2668 27.7002 27.2929C27.5116 27.4293 27.6147 27.8501 27.4862 28.0315C27.3576 28.2129 27.1482 28.3271 27.0836 28.543C27.019 28.759 27.0966 28.9658 27.1045 29.1929C27.111 29.3723 27.0621 29.5328 27.1156 29.7077C27.1678 29.8773 27.0007 30.1683 27.0992 30.3256C27.2806 30.6159 27.5958 30.4195 27.7772 30.7099C27.9585 31.0002 27.6193 31.2123 27.8006 31.5026C27.982 31.793 28.2691 31.6142 28.4505 31.9045C28.6319 32.1949 28.4061 32.3365 28.5882 32.6268C28.7702 32.9172 28.7983 32.8995 28.9796 33.1905C29.161 33.4815 29.2184 33.445 29.4005 33.736C29.5825 34.027 29.7456 33.9246 29.927 34.2149C30.1084 34.5053 29.8885 34.6429 30.0706 34.9339C30.2526 35.2249 30.2643 35.2171 30.4464 35.5074C30.6284 35.7978 30.7759 35.7058 30.9573 35.9961C31.1386 36.2865 31.0016 36.3726 31.1837 36.663C31.3657 36.9533 31.6332 36.7863 31.8146 37.0766C31.996 37.367 31.9705 37.3833 32.1519 37.6743C32.3333 37.9653 32.0312 38.1538 32.2133 38.4448C32.3946 38.7358 32.655 38.5727 32.837 38.8637C33.019 39.1547 32.9016 39.2278 33.0836 39.5188C33.2657 39.8098 33.1013 39.9122 33.2826 40.2032C33.3505 40.3122 33.3786 40.2985 33.4497 40.4055C33.5606 40.5614 33.7955 40.6378 33.9364 40.7591C34.0773 40.8805 34.2516 40.9731 34.4186 41.0586C34.7311 41.1865 34.7135 41.2321 35.0286 41.3529C35.3438 41.4736 35.2877 41.6204 35.6028 41.7411C35.9179 41.8618 35.963 41.7424 36.2781 41.8624C36.5932 41.9825 36.68 41.7548 36.9958 41.8748C37.3116 41.9949 37.2229 42.2245 37.538 42.3446C37.8531 42.4647 37.8897 42.3694 38.2048 42.4894C38.52 42.6095 38.4358 42.8294 38.7509 42.9494C39.0661 43.0695 39.098 42.986 39.4132 43.106C39.7283 43.2261 39.7707 43.1158 40.0859 43.2359C40.401 43.3559 40.3658 43.4479 40.6816 43.568C40.9967 43.688 41.1129 43.384 41.428 43.504C41.7431 43.6241 41.612 43.9679 41.9271 44.088C42.2423 44.208 42.3193 44.0064 42.6344 44.1265C42.9495 44.2465 42.9084 44.3548 43.2236 44.4749C43.5387 44.5949 43.5407 44.5897 43.8565 44.7098C44.1723 44.8298 44.1161 44.9766 44.4313 45.0967C44.7464 45.2167 44.8241 45.0138 45.1392 45.1345C45.4543 45.2552 45.4002 45.3975 45.7153 45.5182C46.0305 45.6389 46.0611 45.5586 46.3763 45.6793C46.6914 45.7994 46.6953 45.7903 47.0105 45.9103C47.3256 46.0304 47.3302 46.0193 47.6453 46.1393C47.9605 46.2594 47.9278 46.3455 48.243 46.4662C48.5581 46.5869 48.5425 46.6274 48.8582 46.7481C49.174 46.8688 49.2654 46.628 49.5805 46.7481C49.8957 46.8681 49.8585 46.9673 50.1736 47.0874C50.4888 47.2074 50.4698 47.259 50.785 47.3797" stroke="#FFD817" stroke-width="1.3" stroke-linecap="round" stroke-linejoin="round"/>
<path d="M52.2061 38.2648C51.8661 38.1885 51.9053 38.0149 51.566 37.9386C51.2267 37.8622 51.2548 37.7363 50.9148 37.66C50.5749 37.5836 50.584 37.5445 50.2441 37.4688C49.9042 37.3931 49.8454 37.6554 49.5055 37.5791C49.1656 37.5027 49.1936 37.3794 48.8537 37.3031C48.5138 37.2267 48.5438 37.0943 48.2045 37.018C47.8652 36.9416 47.751 37.4479 47.4118 37.3716C47.0725 37.2952 47.186 36.7889 46.8461 36.7126C46.5061 36.6363 46.4174 37.0317 46.0775 36.9553C45.7375 36.879 45.8243 36.4934 45.4844 36.417C45.1444 36.3407 45.0838 36.6108 44.7438 36.5345C44.4039 36.4581 44.4169 36.3981 44.0764 36.3257C43.8584 36.2878 43.6262 36.3172 43.4115 36.2702C43.1968 36.2232 42.9776 36.1763 42.7649 36.1195C42.5522 36.0627 42.3421 35.9851 42.132 35.9185C41.9219 35.852 41.6896 35.8376 41.4828 35.762C41.276 35.6863 41.0476 35.6471 40.8447 35.5623C40.6411 35.4775 40.4245 35.4031 40.2255 35.3091C40.0265 35.2152 39.9163 34.934 39.7212 34.8315C39.5261 34.7291 39.3532 34.5901 39.1633 34.4786C38.9734 34.367 38.7986 34.2358 38.6133 34.1164C38.428 33.9964 38.0567 34.1452 37.8766 34.0173C37.6966 33.8894 37.8238 33.3511 37.6496 33.2154C37.4754 33.0797 37.2953 32.9694 37.1276 32.8259C36.9599 32.6823 36.6376 32.7202 36.4765 32.5695C36.3153 32.4187 36.2063 32.2171 36.0517 32.0592C35.8971 31.9013 35.8958 31.611 35.749 31.4466C35.6022 31.2821 35.3392 31.2273 35.1996 31.0564C35.06 30.8854 35.0306 30.6382 34.8988 30.4607C34.767 30.2832 34.2503 30.3804 34.1263 30.1977C34.0023 30.0151 34.123 29.6693 34.0075 29.4813C33.8921 29.2934 33.5502 29.2334 33.4432 29.0403C33.3362 28.8471 33.635 28.4413 33.5365 28.2436C33.4386 28.0466 33.1939 27.9252 33.1039 27.723C33.0191 27.5324 32.8605 27.3726 32.7868 27.1781C32.7131 26.9837 32.441 26.8493 32.3777 26.651C32.3144 26.4526 32.5982 26.1499 32.5454 25.9476C32.4925 25.7453 32.3314 25.5718 32.2903 25.3676C32.2492 25.1633 32.2805 24.948 32.2505 24.7412C32.2204 24.535 32.3281 24.3197 32.3092 24.1116C32.2903 23.9034 32.3222 23.7051 32.3151 23.4963C32.3033 23.1511 32.2159 23.1544 32.2041 22.8093C32.1924 22.4641 32.2759 22.4615 32.2642 22.1163C32.2524 21.7712 32.1917 21.7738 32.18 21.4286C32.1682 21.0835 31.9268 21.092 31.9144 20.7475C31.902 20.403 31.7415 20.4082 31.7291 20.063C31.7167 19.7179 31.7402 19.7172 31.7278 19.3721C31.7154 19.0269 32.0227 19.0165 32.0103 18.6713C31.9986 18.3262 31.8205 18.3327 31.8087 17.9875C31.797 17.6424 32.0991 17.632 32.0867 17.2875C32.0743 16.943 31.7363 16.9547 31.7239 16.6095C31.7115 16.2644 31.5712 16.2696 31.5595 15.9245C31.5477 15.5793 31.5497 15.5793 31.538 15.2342C31.5262 14.889 31.6026 14.8864 31.5902 14.5412C31.5778 14.1961 31.8975 14.185 31.8857 13.8398C31.874 13.4947 31.6052 13.5038 31.5928 13.1587C31.5849 12.9349 31.6574 12.7111 31.5569 12.5173C31.4564 12.3235 31.3501 12.0945 31.1706 11.9614C30.971 11.8126 30.6213 11.9751 30.4216 11.8818C30.1972 11.7774 30.0895 11.4166 29.8709 11.3755C29.6308 11.3305 29.3574 11.1367 29.133 11.1602C28.8942 11.1843 28.7787 11.7004 28.5673 11.7911C28.3559 11.8818 28.0251 11.7611 27.8476 11.9118C27.6702 12.0625 27.4868 12.2446 27.3609 12.4429C27.235 12.6413 26.9968 12.839 26.9342 13.068C26.8716 13.297 26.7919 13.5886 26.8004 13.8294C26.8122 14.1589 26.9283 14.1543 26.9394 14.4838C26.9511 14.8133 27.0856 14.8081 27.0967 15.1376C27.1077 15.4671 27.1534 15.4651 27.1645 15.7946C27.1762 16.1241 27.3844 16.1163 27.3961 16.4458C27.4079 16.7753 26.9127 16.7922 26.9237 17.1217C26.9348 17.4512 27.4242 17.4343 27.4359 17.7631C27.4477 18.0919 27.4294 18.0932 27.4405 18.4221C27.4516 18.7509 27.0105 18.7666 27.0223 19.0961C27.034 19.4256 27.1299 19.4223 27.141 19.7512C27.1528 20.0807 27.3844 20.0722 27.3961 20.4017C27.4079 20.7312 27.1841 20.739 27.1952 21.0678C27.2063 21.3967 27.5286 21.3862 27.5403 21.7151C27.5521 22.0446 27.1515 22.0583 27.1625 22.3878C27.1736 22.7173 27.2591 22.714 27.2709 23.0435C27.2826 23.373 27.6278 23.3606 27.6388 23.6901C27.6506 24.0196 27.355 24.03 27.3668 24.3595C27.3785 24.689 27.2056 24.6949 27.2174 25.0244C27.2291 25.3539 27.2056 25.3545 27.2174 25.6847C27.2291 26.0148 27.3687 26.0096 27.3798 26.3391C27.3903 26.6386 27.3374 27.0346 27.4588 27.3086C27.511 27.4261 27.6395 27.3935 27.7126 27.4998C27.7504 27.4724 27.8411 27.3217 27.8809 27.2969C28.0708 27.1781 28.365 27.368 28.5712 27.3165C28.7774 27.2649 28.9425 27.1592 29.1578 27.1742C29.3731 27.1892 29.593 27.1273 29.7952 27.2082C29.9975 27.2891 30.1834 27.3948 30.3524 27.5363C30.5214 27.6779 30.5306 27.9148 30.6493 28.1046" stroke="#FFD817" stroke-width="1.3" stroke-linecap="round" stroke-linejoin="round"/>
<path d="M18.7523 33.3199C18.9272 33.0492 19.104 33.1634 19.2788 32.8926C19.4537 32.6218 19.5261 32.6688 19.7016 32.398C19.8771 32.1272 19.8439 32.1064 20.0187 31.8356C20.1936 31.5648 20.2353 31.5916 20.4102 31.3208C20.5851 31.05 20.4585 30.9685 20.634 30.6977C20.8095 30.4269 20.7064 30.3604 20.8813 30.0896C21.0568 29.8188 21.2375 29.9363 21.413 29.6655C21.5886 29.3947 21.644 29.4306 21.8189 29.1598C21.9937 28.8891 21.9435 28.8558 22.119 28.585C22.2945 28.3142 22.288 28.3097 22.4622 28.0383C22.5809 27.8484 22.5966 27.5456 22.7597 27.4086C22.9228 27.2716 23.1969 27.2227 23.3972 27.1418C23.5975 27.0609 23.8304 27.0034 24.0477 26.9884C24.265 26.9734 24.4424 27.2246 24.6564 27.2781C24.8704 27.3316 25.1366 27.194 25.3272 27.3127C25.367 27.3375 25.472 27.2775 25.5105 27.3036C25.6991 27.4399 25.6051 27.8471 25.7337 28.0285C25.8661 28.2151 25.8955 28.3769 25.9601 28.5928C26.0246 28.8088 26.1819 28.9647 26.1734 29.1918C26.1669 29.3712 26.0775 29.5043 26.0233 29.6799C25.9692 29.8554 25.9118 29.9728 25.8133 30.1307C25.6319 30.421 25.9457 30.6174 25.7643 30.9084C25.5829 31.1994 25.4348 31.1068 25.2534 31.3971C25.0721 31.6875 24.9598 31.6177 24.7778 31.908C24.5958 32.1984 24.5468 32.1677 24.3648 32.458C24.1827 32.7484 24.2819 32.8104 24.1005 33.1007C23.9191 33.3911 23.8448 33.3447 23.6627 33.6351C23.4807 33.9254 23.7476 34.0925 23.5662 34.3828C23.3848 34.6738 23.2823 34.6099 23.101 34.9002C22.9196 35.1906 22.7121 35.0614 22.5307 35.3517C22.3493 35.6421 22.6729 35.845 22.4916 36.1353C22.3102 36.4257 22.0348 36.2541 21.8535 36.5444C21.6721 36.8348 21.7412 36.8785 21.5592 37.1688C21.3772 37.4592 21.2467 37.3776 21.0653 37.6686C20.8839 37.9596 21.1038 38.0966 20.9217 38.3876C20.7397 38.6786 20.8062 38.7197 20.6242 39.0101C20.4422 39.3004 20.33 39.2306 20.1479 39.5216C19.9659 39.8126 19.8961 39.7689 19.714 40.0592C19.6462 40.1675 19.7369 40.2256 19.6664 40.332C19.5555 40.4879 19.3473 40.5434 19.2064 40.6654C19.0655 40.7874 18.9108 40.8278 18.7438 40.9133C18.4313 41.0412 18.4189 40.9975 18.1037 41.1175C17.7886 41.2376 17.831 41.3485 17.5159 41.4686C17.2007 41.5886 17.1688 41.5051 16.8536 41.6252C16.5385 41.7452 16.6129 41.9409 16.2977 42.061C15.9826 42.181 15.931 42.0453 15.6159 42.1654C15.3008 42.2854 15.3047 42.2965 14.9895 42.4166C14.6744 42.5366 14.7272 42.675 14.4121 42.795C14.097 42.9151 14.1342 43.0123 13.819 43.1323C13.5039 43.2524 13.4067 42.9966 13.0915 43.1173C12.7764 43.238 12.8051 43.3131 12.49 43.4331C12.1748 43.5532 12.1846 43.5799 11.8695 43.7C11.5543 43.82 11.5726 43.8683 11.2574 43.989C10.9423 44.1097 10.9651 44.1691 10.65 44.2892C10.3349 44.4092 10.3753 44.5162 10.0602 44.6363C9.74504 44.7563 9.59497 44.3635 9.27983 44.4836C8.96469 44.6036 8.9934 44.68 8.67826 44.8C8.36312 44.9201 8.45642 45.1654 8.14128 45.2861C7.82614 45.4062 7.78047 45.2861 7.46468 45.4062C7.14888 45.5262 7.22065 45.7128 6.90551 45.8329C6.59037 45.9529 6.54601 45.8368 6.23087 45.9575C5.91573 46.0782 5.95552 46.1833 5.64038 46.3033C5.32524 46.4234 5.19867 46.0913 4.88287 46.2113C4.56708 46.3314 4.56121 46.3151 4.24607 46.4358C3.93093 46.5565 4.00074 46.7385 3.68495 46.8592C3.36916 46.9799 3.40831 47.081 3.09252 47.2018C2.77673 47.3225 2.74084 47.2266 2.42505 47.3473" stroke="white" stroke-width="1.3" stroke-miterlimit="10" stroke-linecap="round"/>
<path d="M1 38.2042C1.33993 38.1278 1.34515 38.1533 1.68509 38.0769C2.02502 38.0006 2.04395 38.0874 2.38388 38.011C2.72381 37.9347 2.65791 37.6424 2.99784 37.5661C3.33778 37.4897 3.37171 37.6417 3.71099 37.5654C4.05027 37.4891 4.05093 37.4897 4.39086 37.414C4.73079 37.3384 4.74384 37.3971 5.08312 37.3214C5.4224 37.2457 5.3689 37.0069 5.70883 36.9306C6.04876 36.8542 6.11271 37.1413 6.45264 37.065C6.79257 36.9886 6.73581 36.7355 7.07574 36.6591C7.41567 36.5828 7.42025 36.603 7.75953 36.5267C8.09946 36.4503 8.13926 36.6285 8.47919 36.5521C8.81912 36.4758 8.78129 36.3009 9.12187 36.2285C9.33979 36.1907 9.5538 36.143 9.76846 36.0954C9.98442 36.0478 10.2128 36.0713 10.4255 36.0145C10.6382 35.9577 10.8985 36.0537 11.108 35.9878C11.3174 35.9219 11.4381 35.5917 11.6449 35.516C11.8518 35.4403 12.0534 35.3673 12.2563 35.2824C12.4592 35.1976 12.82 35.4606 13.0197 35.3673C13.2193 35.2733 13.3616 35.0482 13.5567 34.9451C13.7518 34.842 13.7785 34.4427 13.9684 34.3311C14.1582 34.2196 14.5301 34.4081 14.7154 34.2881C14.9007 34.168 15.1617 34.1465 15.3418 34.0186C15.5219 33.8907 15.3999 33.359 15.5734 33.2233C15.747 33.0876 16.1659 33.2559 16.3335 33.1123C16.5012 32.9688 16.4014 32.5303 16.5626 32.3796C16.7237 32.2289 17.0806 32.2857 17.2346 32.1278C17.3886 31.9705 17.3977 31.6802 17.5445 31.5158C17.6913 31.3513 18.041 31.3618 18.1807 31.1908C18.3203 31.0199 18.5154 30.8848 18.6472 30.7074C18.779 30.5305 18.6113 30.141 18.7353 29.9577C18.8592 29.7743 19.2716 29.7796 19.3871 29.591C19.5026 29.4024 19.438 29.1069 19.545 28.9137C19.652 28.7206 19.7577 28.5294 19.8562 28.3317C19.9541 28.1347 20.0395 27.9331 20.1296 27.7308C20.2144 27.5403 20.1563 27.2969 20.2301 27.1025C20.3044 26.9074 20.7435 26.8389 20.8068 26.6406C20.8701 26.4422 20.8238 26.2028 20.876 26.0011C20.9282 25.7995 20.9686 25.5894 21.0098 25.3852C21.0509 25.181 21.0502 24.965 21.0802 24.7589C21.1102 24.5527 21.2916 24.3569 21.3105 24.1488C21.3295 23.9407 20.8969 23.7064 20.9047 23.4976C20.9165 23.1525 21.3686 23.1688 21.381 22.8237C21.3934 22.4785 21.2296 22.4733 21.2414 22.1281C21.2531 21.783 21.2472 21.783 21.2596 21.4378C21.272 21.0927 21.1526 21.0888 21.1644 20.7436C21.1761 20.3984 21.1141 20.3965 21.1259 20.0513C21.1376 19.7062 21.3451 19.7134 21.3575 19.3689C21.3699 19.0244 21.2649 19.0204 21.2773 18.6753C21.289 18.3301 21.058 18.3223 21.0698 17.9772C21.0815 17.632 21.5441 17.6483 21.5559 17.3038C21.5676 16.9593 21.6133 16.9606 21.6257 16.6155C21.6381 16.2703 21.5193 16.2664 21.5311 15.9212C21.5428 15.5761 21.4945 15.5741 21.5069 15.2296C21.5193 14.8851 21.319 14.878 21.3308 14.5328C21.3425 14.1876 21.4521 14.1916 21.4639 13.8464C21.4756 13.5013 21.2407 13.4928 21.2531 13.1476C21.2609 12.9238 21.4143 12.6367 21.5154 12.443C21.6165 12.2492 21.7679 11.9621 21.9473 11.8283C22.147 11.6796 22.5293 11.8309 22.729 11.7376C22.9534 11.6333 23.1498 11.5308 23.3684 11.4904C23.6085 11.4453 23.8219 11.5191 24.0463 11.5419C24.2851 11.566 24.4404 11.6998 24.6518 11.7898C24.8632 11.8799 25.0726 11.904 25.2501 12.0547C25.4276 12.2055 25.8432 12.1748 25.9698 12.3725C26.0964 12.5702 25.8921 12.9297 25.9541 13.1587C26.0161 13.3877 26.3541 13.5867 26.3456 13.8275C26.3339 14.157 26.3436 14.157 26.3319 14.4865C26.3201 14.816 25.8608 14.7997 25.8497 15.1285C25.838 15.458 26.0676 15.4658 26.0559 15.7953C26.0442 16.1248 26.206 16.13 26.1949 16.4595C26.1838 16.789 26.1466 16.7877 26.1355 17.1166C26.1238 17.446 26.1499 17.4467 26.1381 17.7762C26.1264 18.1057 26.2484 18.1096 26.2366 18.4391C26.2249 18.7686 25.7369 18.7516 25.7251 19.0805C25.7134 19.4093 26.1225 19.4243 26.1114 19.7532C26.1003 20.082 25.9182 20.0761 25.9065 20.4056C25.8947 20.7351 26.0155 20.739 26.0037 21.0685C25.992 21.398 25.977 21.3974 25.9652 21.7269C25.9535 22.0564 25.6077 22.044 25.5966 22.3735C25.5855 22.7029 25.6116 22.7036 25.5998 23.0331C25.5881 23.3626 25.5672 23.3619 25.5555 23.6908C25.5437 24.0196 25.9163 24.0333 25.9045 24.3628C25.8928 24.6923 25.592 24.6819 25.5803 25.0114C25.5685 25.3409 25.6931 25.3454 25.6814 25.6749C25.6696 26.0044 25.7355 26.007 25.7238 26.3365C25.7134 26.636 25.4047 26.8252 25.2834 27.0992C25.2312 27.2167 25.5842 27.3994 25.5111 27.5057C25.4733 27.4783 25.4021 27.2806 25.3623 27.2558C25.1725 27.1371 24.9095 27.1377 24.7033 27.0862C24.4972 27.0346 24.2584 26.9263 24.0431 26.9413C23.8277 26.9564 23.6509 27.1939 23.4487 27.2754C23.2464 27.357 23.1087 27.4855 22.9397 27.6271C22.7707 27.7687 22.682 27.9135 22.5633 28.1034" stroke="white" stroke-width="1.3" stroke-miterlimit="10" stroke-linecap="round"/>
</svg>
