<svg width="16" height="16" viewBox="0 0 16 16" fill="none" xmlns="http://www.w3.org/2000/svg">
<g clip-path="url(#clip0_29_1034)">
<path d="M0.666504 2.66669V6.66669H4.6665" stroke="black" stroke-width="2" stroke-linecap="round" stroke-linejoin="round"/>
<path d="M2.33984 9.99989C2.7721 11.2268 3.59139 12.28 4.67427 13.0008C5.75716 13.7216 7.04496 14.0709 8.34365 13.9962C9.64234 13.9215 10.8816 13.4267 11.8746 12.5864C12.8676 11.7461 13.5607 10.6059 13.8493 9.33746C14.138 8.06905 14.0066 6.74119 13.4749 5.55395C12.9433 4.36671 12.0402 3.38441 10.9017 2.75506C9.76327 2.12571 8.45111 1.88339 7.16296 2.06463C5.87481 2.24586 4.68045 2.84083 3.75984 3.75988L0.666504 6.66655" stroke="black" stroke-width="2" stroke-linecap="round" stroke-linejoin="round"/>
<path d="M2.67333 9.99378C3.1056 11.2207 3.92489 12.2739 5.00777 12.9947C6.09065 13.7155 7.37846 14.0648 8.67714 13.9901C9.97583 13.9153 11.2151 13.4206 12.2081 12.5803C13.2011 11.74 13.8942 10.5998 14.1828 9.33136C14.4715 8.06295 14.3401 6.73509 13.8084 5.54785C13.2768 4.36061 12.3737 3.37831 11.2352 2.74896C10.0968 2.1196 8.7846 1.87729 7.49645 2.05853C6.2083 2.23976 5.01394 2.83473 4.09333 3.75378L1 6.66045" stroke="black" stroke-linecap="round" stroke-linejoin="round"/>
</g>
<defs>
<clipPath id="clip0_29_1034">
<rect width="16" height="16" fill="white"/>
</clipPath>
</defs>
</svg>
