<svg width="183" height="183" viewBox="0 0 183 183" fill="none" xmlns="http://www.w3.org/2000/svg">
<circle cx="91.5" cy="91.5" r="91.5" fill="#648181"/>
<path d="M36.0443 92.5002C35.9953 91.6732 36.6716 91 37.5 91H84.5C85.3284 91 86.0047 91.6732 85.9557 92.5002C85.1799 105.609 74.3034 116 61 116C47.6966 116 36.8201 105.609 36.0443 92.5002Z" fill="white"/>
<path d="M80 67C80 67 77.9255 80 60.5 80C43.0745 80 41 67 41 67" stroke="white" stroke-width="3" stroke-linecap="round"/>
<path d="M96.0443 92.5002C95.9953 91.6732 96.6716 91 97.5 91H144.5C145.328 91 146.005 91.6732 145.956 92.5002C145.18 105.609 134.303 116 121 116C107.697 116 96.8201 105.609 96.0443 92.5002Z" fill="white"/>
<path d="M140 67C140 67 137.926 80 120.5 80C103.074 80 101 67 101 67" stroke="white" stroke-width="3" stroke-linecap="round"/>
</svg>
