<svg width="183" height="183" viewBox="0 0 183 183" fill="none" xmlns="http://www.w3.org/2000/svg">
<circle cx="91.5" cy="91.5" r="91.5" fill="#A5BD60"/>
<path d="M36.0443 86.5002C35.9953 85.6732 36.6716 85 37.5 85H84.5C85.3284 85 86.0047 85.6732 85.9557 86.5002C85.1799 99.6089 74.3034 110 61 110C47.6966 110 36.8201 99.6089 36.0443 86.5002Z" fill="white"/>
<path d="M41 74H80" stroke="white" stroke-width="3" stroke-linecap="round"/>
<path d="M96.0443 86.5002C95.9953 85.6732 96.6716 85 97.5 85H144.5C145.328 85 146.005 85.6732 145.956 86.5002C145.18 99.6089 134.303 110 121 110C107.697 110 96.8201 99.6089 96.0443 86.5002Z" fill="white"/>
<path d="M101 74H140" stroke="white" stroke-width="3" stroke-linecap="round"/>
</svg>
