<svg width="183" height="183" viewBox="0 0 183 183" fill="none" xmlns="http://www.w3.org/2000/svg">
<circle cx="91.5" cy="91.5" r="91.5" fill="#4D6879"/>
<path d="M38 113C38 113 40.5532 96 62 96C83.4468 96 86 113 86 113" stroke="white" stroke-width="3" stroke-linecap="round"/>
<path d="M42 83C42 83 44.0745 70 61.5 70C78.9255 70 81 83 81 83" stroke="white" stroke-width="3" stroke-linecap="round"/>
<path d="M96 113C96 113 98.5532 96 120 96C141.447 96 144 113 144 113" stroke="white" stroke-width="3" stroke-linecap="round"/>
<path d="M100 83C100 83 102.074 70 119.5 70C136.926 70 139 83 139 83" stroke="white" stroke-width="3" stroke-linecap="round"/>
</svg>
