<svg width="183" height="183" viewBox="0 0 183 183" fill="none" xmlns="http://www.w3.org/2000/svg">
<circle cx="91.5" cy="91.5" r="91.5" fill="#596D55"/>
<path d="M38.0443 92.5002C37.9953 91.6732 38.6716 91 39.5 91H86.5C87.3284 91 88.0047 91.6732 87.9557 92.5002C87.1799 105.609 76.3034 116 63 116C49.6966 116 38.8201 105.609 38.0443 92.5002Z" fill="white"/>
<path d="M43 80C43 80 45.0745 67 62.5 67C79.9255 67 82 80 82 80" stroke="white" stroke-width="3" stroke-linecap="round"/>
<path d="M96 110C96 110 98.5532 93 120 93C141.447 93 144 110 144 110" stroke="white" stroke-width="3" stroke-linecap="round"/>
<path d="M100 80C100 80 102.074 67 119.5 67C136.926 67 139 80 139 80" stroke="white" stroke-width="3" stroke-linecap="round"/>
</svg>
