<svg width="183" height="183" viewBox="0 0 183 183" fill="none" xmlns="http://www.w3.org/2000/svg">
<circle cx="91.5" cy="91.5" r="91.5" fill="#F8A4AB"/>
<path d="M96.0443 92.9045C95.9953 92.0775 96.6716 91.4043 97.5 91.4043H144.5C145.328 91.4043 146.005 92.0775 145.956 92.9045C145.18 106.013 134.303 116.404 121 116.404C107.697 116.404 96.8201 106.013 96.0443 92.9045Z" fill="white"/>
<path d="M101 67L140.802 80.8089" stroke="white" stroke-width="3" stroke-linecap="round"/>
<path d="M36.0443 92.9045C35.9953 92.0775 36.6716 91.4043 37.5 91.4043H84.5C85.3284 91.4043 86.0047 92.0775 85.9557 92.9045C85.1799 106.013 74.3034 116.404 61 116.404C47.6966 116.404 36.8201 106.013 36.0443 92.9045Z" fill="white"/>
<path d="M81 67L41.1979 80.8089" stroke="white" stroke-width="3" stroke-linecap="round"/>
</svg>
